HIERARCHY
ROOT root
{
	OFFSET 0.000000 0.000000 0.000000
	CHANNELS 6 Xposition Yposition Zposition Zrotation Yrotation Xrotation
	JOINT lhip
	{
		OFFSET 0.058581 -0.082280 -0.017664
		CHANNELS 3 Zrotation Yrotation Xrotation
		JOINT lknee
		{
			OFFSET 0.043451 -0.386469 0.008037
			CHANNELS 3 Zrotation Yrotation Xrotation
			JOINT lankle
			{
				OFFSET -0.014790 -0.426874 -0.037428
				CHANNELS 3 Zrotation Yrotation Xrotation
				JOINT ltoe
				{
					OFFSET 0.041054 -0.060286 0.122042
					CHANNELS 3 Zrotation Yrotation Xrotation
					End Site
					{
						OFFSET 0.000000 0.000000 0.000000
					}
				}
			}
		}
	}
	JOINT rhip
	{
		OFFSET -0.060310 -0.090513 -0.013543
		CHANNELS 3 Zrotation Yrotation Xrotation
		JOINT rknee
		{
			OFFSET -0.043257 -0.383688 -0.004843
			CHANNELS 3 Zrotation Yrotation Xrotation
			JOINT rankle
			{
				OFFSET 0.019056 -0.420046 -0.034562
				CHANNELS 3 Zrotation Yrotation Xrotation
				JOINT rtoe
				{
					OFFSET -0.034840 -0.062106 0.130323
					CHANNELS 3 Zrotation Yrotation Xrotation
					End Site
					{
						OFFSET 0.000000 0.000000 0.000000
					}
				}
			}
		}
	}
	JOINT lowerback
	{
		OFFSET 0.004439 0.124404 -0.038385
		CHANNELS 3 Zrotation Yrotation Xrotation
		JOINT upperback
		{
			OFFSET 0.004488 0.137956 0.026820
			CHANNELS 3 Zrotation Yrotation Xrotation
			JOINT chest
			{
				OFFSET -0.002265 0.056032 0.002855
				CHANNELS 3 Zrotation Yrotation Xrotation
				JOINT lowerneck
				{
					OFFSET -0.013390 0.211636 -0.033468
					CHANNELS 3 Zrotation Yrotation Xrotation
					JOINT upperneck
					{
						OFFSET 0.010113 0.088937 0.050410
						CHANNELS 3 Zrotation Yrotation Xrotation
						End Site
						{
							OFFSET 0.000000 0.000000 0.000000
						}
					}
				}
				JOINT lclavicle
				{
					OFFSET 0.071702 0.114000 -0.018898
					CHANNELS 3 Zrotation Yrotation Xrotation
					JOINT lshoulder
					{
						OFFSET 0.122921 0.045205 -0.019046
						CHANNELS 3 Zrotation Yrotation Xrotation
						JOINT lelbow
						{
							OFFSET 0.255332 -0.015649 -0.022946
							CHANNELS 3 Zrotation Yrotation Xrotation
							JOINT lwrist
							{
								OFFSET 0.265709 0.012698 -0.007375
								CHANNELS 3 Zrotation Yrotation Xrotation
								End Site
								{
									OFFSET 0.000000 0.000000 0.000000
								}
							}
						}
					}
				}
				JOINT rclavicle
				{
					OFFSET -0.082954 0.112472 -0.023707
					CHANNELS 3 Zrotation Yrotation Xrotation
					JOINT rshoulder
					{
						OFFSET -0.113228 0.046853 -0.008472
						CHANNELS 3 Zrotation Yrotation Xrotation
						JOINT relbow
						{
							OFFSET -0.260127 -0.014369 -0.031269
							CHANNELS 3 Zrotation Yrotation Xrotation
							JOINT rwrist
							{
								OFFSET -0.269108 0.006794 -0.006027
								CHANNELS 3 Zrotation Yrotation Xrotation
								End Site
								{
									OFFSET 0.000000 0.000000 0.000000
								}
							}
						}
					}
				}
			}
		}
	}
}
MOTION
Frames: 10
Frame Time: 0.033333
0.495071 2.008410 1.024206 75.661395 1.465810 86.095262 0.971569 2.695930 6.917410 -1.838180 -7.348046 4.543326 4.410230 10.562666 -12.885136 0.000000 -0.000000 0.000000 2.493919 -0.297873 1.569396 1.211637 2.280235 12.723537 1.646125 -5.253277 -11.629852 0.000000 -0.000000 0.000000 -0.549575 -0.844605 8.728969 1.211035 -1.958558 -0.873958 -0.837180 -1.032912 -0.516334 3.837382 -11.967730 -2.731741 0.500416 -17.276756 8.735993 -30.249587 -0.174135 6.397682 -58.305753 -4.231419 10.565107 8.065360 -18.956962 7.810033 -2.416549 0.921016 -1.324575 29.179139 6.217486 4.817267 59.106452 2.838757 13.664159 -9.985058 18.805981 -1.498407 4.717917 0.291497 -4.803280 
0.495420 2.010891 1.024330 75.926076 1.336516 85.951275 0.576361 2.582897 6.774993 -1.751515 -7.510358 4.954777 4.390803 10.573944 -12.818871 0.000000 -0.000000 0.000000 2.113163 -0.230713 1.749506 1.379235 2.276911 12.671478 1.940643 -5.542724 -11.695829 0.000000 -0.000000 0.000000 -0.203448 -0.981130 8.674826 1.239630 -1.841242 -0.857245 -0.839677 -0.966047 -0.372922 3.284566 -9.044167 -1.719092 -0.731020 -14.135630 10.728034 -29.913934 0.293850 6.063472 -58.365658 -4.732639 10.536343 8.094131 -20.248042 7.504789 -2.531883 0.243639 -2.094154 29.205225 5.842679 4.782630 58.547234 4.203235 13.629141 -10.171134 18.592529 -2.831689 4.893521 0.754397 -5.424454 
0.496316 2.013849 1.024476 76.101354 1.152188 85.736170 0.120114 2.302036 6.897268 -1.802865 -7.425106 5.181225 4.589539 10.653370 -12.962029 0.000000 -0.000000 0.000000 1.681860 -0.166129 1.972269 1.391913 2.099597 12.737808 1.983782 -5.549959 -11.819109 0.000000 -0.000000 0.000000 0.213154 -1.025425 8.555967 1.245245 -1.665271 -0.747462 -0.827061 -0.898970 -0.097940 2.402373 -6.096157 0.196555 -1.568720 -10.633648 12.023132 -29.807389 0.560544 5.927930 -58.183338 -5.150936 10.412501 8.272336 -22.093196 7.036257 -3.239466 -0.573486 -3.121336 29.290950 5.538406 4.867046 57.970575 5.210448 13.654536 -11.041300 19.166447 -3.962324 4.799381 1.216807 -5.798167 
0.498239 2.017564 1.024477 76.327439 0.958603 85.365002 -0.491621 1.948010 7.064224 -1.778227 -7.364380 5.774663 5.149689 10.812058 -13.252607 0.000000 -0.000000 0.000000 1.070273 -0.438887 2.368834 1.407207 1.826927 12.937265 2.020416 -5.222447 -11.999084 0.000000 -0.000000 0.000000 0.884018 -0.893696 8.244012 1.267713 -1.363192 -0.392764 -0.822257 -0.727647 0.203206 1.494927 -2.651324 2.707814 -2.766485 -6.332015 13.792723 -29.627452 0.927056 5.696032 -58.159018 -5.900422 10.103032 8.390965 -24.220402 5.945046 -4.853602 -1.589943 -5.112079 29.192852 5.076792 5.230994 57.424450 6.382054 13.696993 -12.222490 20.083066 -5.290726 5.459131 1.302625 -6.417672 
0.499488 2.020605 1.023930 76.582821 0.885755 85.152408 -0.937521 1.585878 6.919661 -1.663823 -7.354637 6.524137 5.187164 10.901242 -13.627976 0.000000 -0.000000 0.000000 0.671401 -0.539329 2.511552 1.537497 1.642524 13.168248 2.163577 -5.132947 -12.203223 0.000000 -0.000000 0.000000 1.500893 -0.841309 8.227908 1.201416 -1.198340 -0.308232 -0.909598 -0.677841 0.577253 0.827565 -0.827279 3.866450 -3.214566 -4.218452 14.823027 -29.303764 1.141415 5.486251 -58.322469 -6.335739 10.030554 8.579068 -26.172538 5.339336 -4.858027 -2.182009 -6.642110 29.021019 4.736794 5.407311 56.920731 7.066593 13.706451 -12.298966 21.057687 -5.920413 5.198704 2.217457 -7.119396 
0.501018 2.024943 1.023506 77.228611 0.759040 84.762268 -1.527897 1.114888 6.741268 -1.685593 -7.582698 7.664797 5.536616 11.007903 -14.030526 0.000000 -0.000000 0.000000 0.289538 -0.790430 2.677407 1.323808 1.300913 13.936692 2.253316 -5.151647 -12.824442 0.000000 -0.000000 0.000000 2.131855 -0.698527 8.400125 1.193664 -1.020778 0.092452 -0.970779 -0.577377 0.907616 0.218040 0.875676 5.105757 -3.791144 -2.052719 15.432913 -29.356781 1.274496 5.372133 -58.193716 -6.820978 9.855474 8.911299 -28.765964 4.499243 -5.363271 -3.095458 -8.352052 28.953059 4.480379 5.587789 56.398933 7.439795 13.684658 -13.319549 22.565752 -6.786364 5.113708 2.224227 -7.383141 
0.503031 2.029804 1.022259 77.943150 0.561141 84.191809 -2.169209 0.761865 6.877246 -1.757653 -8.030964 8.629225 5.730581 11.105447 -14.634871 0.000000 -0.000000 0.000000 -0.190484 -1.072253 2.508748 1.113411 0.922912 15.564117 2.410960 -5.118963 -13.784698 0.000000 -0.000000 0.000000 2.752743 -0.691507 8.714132 1.128342 -0.881438 0.480121 -1.172495 -0.356327 1.237166 -0.215301 1.953132 6.119774 -4.184825 -0.669166 15.722634 -29.144503 1.034533 5.465027 -58.257230 -7.237816 9.917821 9.419561 -31.342074 3.549301 -5.112453 -3.336908 -9.601348 28.683316 4.715748 6.000168 56.150289 7.583508 13.419621 -14.225612 23.713378 -7.946790 4.991735 2.661801 -7.674022 
0.505135 2.034865 1.020796 79.123076 0.197598 83.718651 -3.023386 0.585274 7.353027 -1.605760 -8.945206 8.866803 6.141335 10.943620 -15.069885 0.000000 -0.000000 0.000000 -0.487395 -0.771100 1.898921 0.387446 0.187246 18.073558 2.722292 -5.772945 -14.817685 0.000000 -0.000000 0.000000 2.736595 -0.732767 9.206925 1.175949 -0.608778 0.539722 -1.183502 -0.407390 1.528179 -0.178682 2.408150 7.028070 -4.467018 -0.402247 16.429243 -28.908564 1.216006 5.405541 -58.340211 -7.598568 10.228925 10.099147 -34.012414 3.634550 -5.441529 -3.714428 -9.727854 28.720381 4.531663 5.949346 55.816876 7.389904 13.389844 -15.090811 24.629772 -8.832305 5.309778 2.866685 -7.505876 
0.508106 2.039649 1.018510 80.406577 -0.221179 83.060911 -3.738401 0.429277 8.172071 -1.781209 -9.736271 8.900752 6.423859 10.748436 -15.326800 0.000000 -0.000000 0.000000 -0.725281 -0.553250 0.791118 -0.567864 -0.498072 21.971393 3.047072 -6.457696 -15.857997 0.000000 -0.000000 0.000000 2.394016 -0.917041 9.867710 1.300483 -0.480010 0.589265 -1.132307 -0.281418 1.941660 -0.093002 2.423541 7.542539 -4.548775 -0.411555 16.453031 -28.515130 1.272474 5.245519 -58.387213 -7.815721 10.501500 10.247377 -36.134179 4.043298 -4.978071 -3.593315 -9.694004 28.479547 4.645459 5.845915 55.721191 7.142751 13.240251 -15.503411 25.244722 -9.360120 5.418518 2.866300 -7.450664 
0.511856 2.045768 1.015158 81.953399 -0.801262 82.294723 -4.668023 0.227669 9.192165 -2.028438 -11.122711 8.821028 7.188196 10.847790 -15.642381 0.000000 -0.000000 0.000000 -1.226288 0.089672 -2.169801 -1.639118 -1.655840 29.681146 3.912522 -7.451370 -15.831655 0.000000 -0.000000 0.000000 1.961595 -1.280246 10.790337 1.295610 -0.037810 0.566372 -1.324612 -0.263472 2.295349 0.516192 2.137151 7.767370 -4.604028 -0.728906 16.995747 -28.159181 1.369395 5.265373 -58.253579 -8.215653 10.611411 10.808779 -37.774185 3.821345 -5.137506 -3.652864 -9.705456 28.632057 4.606892 5.606853 55.707466 6.979613 13.291248 -16.015951 24.923871 -9.995701 5.881672 2.996611 -6.933197 
